<svg xmlns="http://www.w3.org/2000/svg" width="256" height="256" viewBox="0 0 256 256">
  <defs>
    <linearGradient id="paper" x1="48" y1="24" x2="203" y2="232" gradientUnits="userSpaceOnUse">
      <stop stop-color="#ef5960"/>
      <stop offset="1" stop-color="#aa142b"/>
    </linearGradient>
  </defs>
  <path d="M62 22h93l51 51v139a20 20 0 0 1-20 20H62a20 20 0 0 1-20-20V42a20 20 0 0 1 20-20Z" fill="url(#paper)"/>
  <path d="M155 22v39a12 12 0 0 0 12 12h39l-51-51Z" fill="#ff9da1"/>
  <path d="M155 22v39a12 12 0 0 0 12 12h39" fill="none" stroke="#861426" stroke-opacity=".38" stroke-width="4"/>
  <text x="128" y="157" fill="#fff" font-family="Arial, Helvetica, sans-serif" font-size="42" font-weight="800" text-anchor="middle" letter-spacing="-1.5">PDF</text>
</svg>