<svg xmlns="http://www.w3.org/2000/svg" width="256" height="256" viewBox="0 0 256 256">
  <defs>
    <linearGradient id="paper" x1="42" y1="38" x2="208" y2="218" gradientUnits="userSpaceOnUse">
      <stop stop-color="#ed5961"/>
      <stop offset="1" stop-color="#a9152c"/>
    </linearGradient>
  </defs>
  <rect x="8" y="8" width="240" height="240" rx="54" fill="#fff"/>
  <path d="M65 36h91l46 46v122a16 16 0 0 1-16 16H65a16 16 0 0 1-16-16V52a16 16 0 0 1 16-16Z" fill="url(#paper)"/>
  <path d="M156 36v35a11 11 0 0 0 11 11h35l-46-46Z" fill="#ff9ba0"/>
  <path d="M156 36v35a11 11 0 0 0 11 11h35" fill="none" stroke="#8f1527" stroke-opacity=".38" stroke-width="4"/>
  <text x="128" y="158" fill="#fff" font-family="Arial, Helvetica, sans-serif" font-size="40" font-weight="800" text-anchor="middle" letter-spacing="-1.5">PDF</text>
</svg>